<?xml version="1.0" encoding="UTF-8" standalone="no"?>
<svg
   xmlns:dc="http://purl.org/dc/elements/1.1/"
   xmlns:cc="http://creativecommons.org/ns#"
   xmlns:rdf="http://www.w3.org/1999/02/22-rdf-syntax-ns#"
   xmlns:svg="http://www.w3.org/2000/svg"
   xmlns="http://www.w3.org/2000/svg"
   xmlns:sodipodi="http://sodipodi.sourceforge.net/DTD/sodipodi-0.dtd"
   xmlns:inkscape="http://www.inkscape.org/namespaces/inkscape"
   width="36.495251"
   height="28.022762"
   viewBox="0 0 36.495251 28.022762"
   version="1.1"
   id="svg22"
   sodipodi:docname="Cart.svg"
   inkscape:version="1.0.1 (3bc2e813f5, 2020-09-07, custom)">
  <metadata
     id="metadata26">
    <rdf:RDF>
      <cc:Work
         rdf:about="">
        <dc:format>image/svg+xml</dc:format>
        <dc:type
           rdf:resource="http://purl.org/dc/dcmitype/StillImage" />
      </cc:Work>
    </rdf:RDF>
  </metadata>
  <sodipodi:namedview
     pagecolor="#ffffff"
     bordercolor="#666666"
     borderopacity="1"
     objecttolerance="10"
     gridtolerance="10"
     guidetolerance="10"
     inkscape:pageopacity="0"
     inkscape:pageshadow="2"
     inkscape:window-width="1888"
     inkscape:window-height="1052"
     id="namedview24"
     showgrid="false"
     inkscape:zoom="10.916667"
     inkscape:cx="2.9682641"
     inkscape:cy="14"
     inkscape:window-x="32"
     inkscape:window-y="0"
     inkscape:window-maximized="1"
     inkscape:current-layer="g20" />
  <defs
     id="defs4">
    <style
       id="style2">.a{fill:#1a438d;stroke:#0047ba;}.b{fill:#fcfcfc;}.c,.e{fill:none;}.c{stroke:#fff;}.d{stroke:none;}</style>
  </defs>
  <g
     transform="translate(42.614,3.492)"
     id="g20">
    <g
       transform="translate(-42.614,-3.492)"
       id="g18">
      <g
         id="g16">
        <path
           class="b"
           d="M 0.5,1 H 1.288 A 0.5,0.5 0 0 1 1.76,1.336 L 9.31,23.108 A 2.505,2.505 0 1 0 11.987,24 l 15.28,-0.038 a 2.474,2.474 0 0 0 -0.513,1.5 2.5,2.5 0 1 0 2.5,-2.5 L 10.332,23 9.639,21 29.795,20.943 A 1.493,1.493 0 0 0 31.188,20 l 5.2,-13 A 1.5,1.5 0 0 0 34.995,4.943 L 4.09,5 2.705,1.008 A 1.5,1.5 0 0 0 1.288,0 H 0.5 a 0.5,0.5 0 0 0 0,1 z m 32.621,11.468 a 0.489,0.489 0 0 0 -0.127,-0.025 h -5.12 l 1.05,-4.5 h 6.007 z M 14.9,20 l -1.52,-6.5 13.235,-0.057 -1.516,6.5 z M 13.15,12.5 12.1,8 27.9,7.943 l -1.05,4.5 z M 5.13,8 h 5.94 l 1.05,4.5 H 6.691 Z M 11.863,7 11.63,6 28.365,5.943 l -0.233,1 z M 11.5,25.5 A 1.5,1.5 0 1 1 10,24 a 1.5,1.5 0 0 1 1.5,1.5 z m 19.254,-0.038 a 1.5,1.5 0 1 1 -1.5,-1.5 1.5,1.5 0 0 1 1.5,1.5 z M 7.038,13.5 h 5.315 L 13.87,20 H 9.292 Z m 23.22,6.128 a 0.5,0.5 0 0 1 -0.463,0.314 h -3.67 l 1.516,-6.5 h 5.091 z m 5.15,-13.466 a 0.492,0.492 0 0 1 0.05,0.466 l -0.125,0.314 h -6.175 l 0.233,-1 h 5.6 a 0.492,0.492 0 0 1 0.416,0.22 z M 10.6,6 10.833,7 H 4.783 L 4.436,6 Z"
           id="path12" />
        <path
           class="c"
           d="M 20.615,5.5 V 20.231"
           id="path14" />
      </g>
    </g>
  </g>
</svg>
